<?xml version="1.0" standalone="no"?><svg xmlns="http://www.w3.org/2000/svg" viewBox="0 0 1440 320"><path fill="#ffffff" fill-opacity="1" d="M0,160L34.3,154.7C68.6,149,137,139,206,149.3C274.3,160,343,192,411,181.3C480,171,549,117,617,101.3C685.7,85,754,107,823,138.7C891.4,171,960,213,1029,218.7C1097.1,224,1166,192,1234,176C1302.9,160,1371,160,1406,160L1440,160L1440,320L1405.7,320C1371.4,320,1303,320,1234,320C1165.7,320,1097,320,1029,320C960,320,891,320,823,320C754.3,320,686,320,617,320C548.6,320,480,320,411,320C342.9,320,274,320,206,320C137.1,320,69,320,34,320L0,320Z"></path></svg>