<?xml version="1.0" standalone="no"?><svg xmlns="http://www.w3.org/2000/svg" viewBox="0 0 1440 320"><path fill="#f3f4f5" fill-opacity="1" d="M0,32L26.7,69.3C53.3,107,107,181,160,181.3C213.3,181,267,107,320,90.7C373.3,75,427,117,480,160C533.3,203,587,245,640,240C693.3,235,747,181,800,154.7C853.3,128,907,128,960,138.7C1013.3,149,1067,171,1120,170.7C1173.3,171,1227,149,1280,160C1333.3,171,1387,213,1413,234.7L1440,256L1440,320L1413.3,320C1386.7,320,1333,320,1280,320C1226.7,320,1173,320,1120,320C1066.7,320,1013,320,960,320C906.7,320,853,320,800,320C746.7,320,693,320,640,320C586.7,320,533,320,480,320C426.7,320,373,320,320,320C266.7,320,213,320,160,320C106.7,320,53,320,27,320L0,320Z"></path></svg>